# xmcd
#
# Track frame offsets:
#	150
#	20242
#	43105
#	72218
#	101971
#	144772
#	168320
#	190701
#	192828
#	218615
#
# Disc length: 3318 seconds
#
# Revision: 1
# Processed by: cddbd v1.5.2PL0 Copyright (c) Steve Scherf et al.
# Submitted via: audiograbber 1.83.01
#
DISCID=8b0cf40a
DTITLE=Cruise Control - City Life
DYEAR=1900
DGENRE=
TTITLE0=Aurora
TTITLE1=Infinity
TTITLE2=Bad Kick
TTITLE3=Perfect Match
TTITLE4=Metropolis
TTITLE5=Weather Report
TTITLE6=Crimson Sunrise
TTITLE7=Introduction to Farewell
TTITLE8=Farewell
TTITLE9=Metrosax
EXTD=
EXTT0=
EXTT1=
EXTT2=
EXTT3=
EXTT4=
EXTT5=
EXTT6=
EXTT7=
EXTT8=
EXTT9=
PLAYORDER=
